<?xml version="1.0" standalone="no"?>
<!DOCTYPE svg PUBLIC "-//W3C//DTD SVG 20010904//EN"
 "http://www.w3.org/TR/2001/REC-SVG-20010904/DTD/svg10.dtd">
<svg version="1.0" xmlns="http://www.w3.org/2000/svg"
 width="1024.000000pt" height="1024.000000pt" viewBox="0 0 1024.000000 1024.000000"
 preserveAspectRatio="xMidYMid meet">

<g transform="translate(0.000000,1024.000000) scale(0.100000,-0.100000)"
fill="#000000" stroke="none">
<path d="M4880 9514 c-19 -2 -82 -9 -140 -15 -946 -97 -1807 -576 -2366 -1314
-364 -480 -592 -1041 -681 -1675 -26 -182 -26 -709 0 -900 45 -334 137 -642
291 -980 240 -524 625 -993 1106 -1344 341 -249 787 -462 1179 -561 852 -216
1777 -95 2526 330 285 161 527 346 760 579 355 356 583 700 785 1186 162 391
233 767 234 1240 0 247 -10 373 -50 607 -96 563 -346 1123 -704 1573 -101 126
-331 363 -455 468 -524 441 -1117 697 -1825 788 -117 14 -577 28 -660 18z
m689 -213 c369 -52 651 -134 960 -282 683 -327 1180 -816 1521 -1498 339 -679
429 -1523 242 -2261 -41 -160 -164 -494 -228 -621 -381 -749 -1034 -1342
-1784 -1622 -628 -234 -1267 -277 -1899 -127 -605 144 -1128 437 -1571 880
-541 540 -865 1217 -941 1960 -14 147 -15 504 0 640 65 600 236 1079 552 1552
363 541 922 978 1544 1206 272 99 547 159 910 196 22 2 153 3 290 1 188 -2
288 -8 404 -24z"/>
<path d="M5662 8428 c-78 -11 -175 -45 -249 -89 -65 -39 -180 -148 -242 -232
-24 -32 -47 -56 -51 -55 -4 2 -42 45 -84 96 -89 107 -163 169 -261 217 -96 48
-172 65 -283 65 -177 0 -308 -54 -432 -179 -257 -258 -251 -662 15 -1015 86
-115 178 -209 435 -446 129 -120 314 -292 410 -383 122 -116 182 -166 198
-167 16 0 54 29 120 91 54 51 223 209 377 352 455 424 565 542 654 709 90 166
123 387 82 548 -34 138 -81 223 -175 315 -142 140 -320 200 -514 173z"/>
<path d="M2775 7406 c-54 -20 -120 -92 -136 -147 -17 -63 1 -320 76 -1049 32
-319 50 -437 81 -559 62 -238 85 -272 404 -580 521 -505 573 -559 611 -636 31
-63 34 -79 37 -175 2 -66 -6 -199 -22 -358 -14 -140 -26 -260 -26 -268 0 -8
11 -26 25 -39 34 -34 93 -34 125 0 20 22 26 49 51 262 55 459 38 591 -97 760
-72 89 -138 155 -426 424 -313 293 -395 380 -443 470 -84 159 -125 428 -185
1199 -11 146 -25 301 -30 345 -20 162 -10 205 45 191 79 -20 170 -317 236
-771 l22 -150 -26 -38 c-38 -55 -50 -102 -43 -160 14 -118 89 -214 493 -625
273 -277 279 -282 318 -282 43 1 65 13 83 47 27 50 21 58 -296 377 -429 433
-471 488 -412 541 28 25 86 15 157 -28 32 -20 137 -100 233 -179 185 -151 203
-163 480 -333 321 -197 408 -281 516 -500 109 -222 107 -200 111 -945 2 -432
7 -642 14 -656 26 -51 97 -57 141 -14 l30 30 -5 623 c-5 670 -7 692 -62 873
-101 332 -269 509 -765 808 -80 48 -155 95 -167 104 -19 14 -29 49 -63 227
-49 252 -101 471 -129 544 -44 116 -126 191 -234 213 -56 12 -60 14 -84 61
-52 104 -150 178 -254 192 -41 6 -49 12 -69 47 -74 132 -203 195 -315 154z
m448 -423 c53 -57 90 -178 137 -453 15 -91 27 -166 26 -167 0 0 -22 1 -48 4
-47 5 -47 6 -53 47 -36 278 -78 524 -100 579 -11 26 8 21 38 -10z m305 -236
c27 -29 46 -74 71 -172 19 -76 81 -379 81 -397 0 -5 -24 9 -53 31 l-52 40 -18
143 c-18 136 -51 332 -63 363 -9 22 10 18 34 -8z"/>
<path d="M7316 7405 c-56 -20 -105 -63 -154 -135 -40 -58 -46 -63 -85 -67 -95
-8 -198 -88 -252 -193 -22 -43 -26 -46 -82 -58 -111 -23 -186 -93 -231 -214
-37 -99 -104 -395 -153 -676 -15 -86 9 -65 -264 -232 -245 -150 -346 -224
-451 -332 -184 -188 -284 -422 -314 -733 -5 -61 -10 -355 -10 -657 l0 -547 24
-28 c20 -23 32 -28 71 -28 39 0 51 5 72 30 l26 29 -8 581 c-8 728 -3 780 112
1009 112 223 189 295 568 526 214 131 281 179 450 319 203 169 293 219 351
192 86 -39 35 -110 -388 -537 -284 -287 -318 -324 -318 -353 0 -48 38 -81 92
-81 l43 0 299 305 c164 168 323 336 354 373 72 87 122 191 122 252 0 46 -28
120 -57 152 -14 15 -14 29 1 140 23 169 90 496 121 593 55 169 122 252 162
200 17 -23 17 -17 -22 -495 -71 -882 -98 -1064 -177 -1212 -40 -76 -236 -285
-458 -488 -509 -467 -561 -550 -547 -874 9 -201 53 -536 76 -566 26 -35 94
-40 127 -9 30 28 30 33 -2 333 -16 151 -24 277 -22 337 3 88 7 103 42 174 44
90 122 171 518 544 401 378 455 459 517 766 34 169 106 877 132 1285 12 194
12 195 -11 248 -49 113 -164 166 -274 127z m-259 -410 c-22 -56 -71 -342 -95
-555 l-7 -65 -45 -6 c-25 -4 -47 -5 -49 -2 -7 6 39 288 66 397 28 117 54 181
90 219 29 29 48 36 40 12z m-311 -242 c-17 -59 -76 -433 -76 -486 0 -7 -25
-31 -55 -55 -49 -37 -55 -39 -50 -20 3 13 21 104 40 203 44 222 68 305 101
345 28 33 48 40 40 13z"/>
<path d="M2513 2046 c-188 -61 -293 -247 -293 -518 1 -185 49 -318 150 -411
83 -77 147 -101 270 -101 122 0 188 24 268 99 106 98 152 225 152 420 0 243
-87 418 -247 496 -39 18 -68 23 -153 26 -69 2 -119 -2 -147 -11z m213 -175
c57 -26 101 -84 126 -164 17 -58 20 -88 16 -196 -3 -121 -6 -132 -37 -195 -44
-89 -97 -126 -183 -126 -71 0 -112 17 -155 61 -55 58 -76 120 -81 242 -11 254
71 396 228 396 25 0 63 -8 86 -18z"/>
<path d="M1350 2035 c-10 -12 0 -52 48 -212 33 -109 99 -326 147 -483 48 -157
91 -290 97 -297 15 -18 212 -18 225 0 6 6 75 228 153 491 105 352 140 484 133
495 -8 12 -31 17 -92 19 -76 3 -82 1 -91 -20 -5 -13 -55 -187 -110 -387 -55
-201 -102 -366 -104 -368 -2 -2 -7 9 -10 24 -20 81 -200 721 -208 736 -7 14
-23 17 -92 17 -61 0 -87 -4 -96 -15z"/>
<path d="M3232 2038 c-17 -17 -18 -978 0 -996 17 -17 549 -17 566 0 7 7 12 41
12 80 0 56 -3 70 -17 76 -10 4 -100 6 -200 5 l-183 -2 -2 422 -3 422 -80 3
c-54 2 -84 -1 -93 -10z"/>
<path d="M3900 2029 c-8 -14 -10 -136 -8 -397 3 -360 4 -379 24 -423 66 -141
239 -222 410 -190 174 32 267 135 285 315 12 130 11 673 -1 697 -9 16 -22 19
-88 19 -47 0 -83 -5 -90 -12 -9 -9 -12 -105 -12 -368 0 -328 -2 -358 -20 -397
-26 -58 -69 -83 -143 -83 -79 0 -121 21 -147 74 -19 40 -20 60 -20 402 0 267
-3 363 -12 372 -7 7 -43 12 -90 12 -68 0 -79 -3 -88 -21z"/>
<path d="M4792 2038 c-17 -17 -18 -978 0 -996 17 -17 142 -16 157 1 7 9 12
120 13 341 l3 326 54 -97 c29 -54 108 -199 174 -323 66 -124 127 -233 135
-242 22 -26 162 -26 185 0 15 17 17 65 17 491 0 306 -4 479 -10 492 -9 16 -22
19 -84 19 -49 0 -77 -4 -85 -13 -7 -9 -12 -118 -13 -334 l-3 -319 -180 330
-181 331 -84 3 c-58 2 -89 -1 -98 -10z"/>
<path d="M5672 2038 c-12 -12 -17 -114 -6 -142 5 -13 26 -16 130 -16 l124 0 0
-413 c0 -308 3 -416 12 -425 16 -16 150 -16 166 0 9 9 12 117 12 425 l0 413
118 0 c78 0 122 4 130 12 7 7 12 39 12 73 0 34 -5 66 -12 73 -17 17 -669 17
-686 0z"/>
<path d="M6507 2043 c-4 -3 -7 -227 -7 -498 0 -368 3 -494 12 -503 17 -17 559
-17 576 0 16 16 16 130 0 146 -9 9 -68 12 -205 12 l-193 0 0 130 0 130 173 2
172 3 3 68 c2 42 -2 74 -9 83 -9 11 -46 14 -175 14 l-164 0 0 125 0 125 193 2
192 3 3 68 c2 42 -2 74 -9 83 -9 11 -62 14 -284 14 -149 0 -275 -3 -278 -7z"/>
<path d="M7252 2038 c-17 -17 -17 -979 0 -996 14 -14 554 -17 576 -3 9 5 12
29 10 82 l-3 74 -202 3 -203 2 0 130 0 130 168 0 c117 0 172 4 180 12 7 7 12
39 12 73 0 34 -5 66 -12 73 -8 8 -63 12 -180 12 l-168 0 0 125 0 125 198 2
197 3 3 68 c2 42 -2 74 -9 83 -16 19 -548 21 -567 2z"/>
<path d="M8013 2039 c-18 -18 -19 -979 -1 -997 17 -17 152 -16 167 1 6 8 12
80 13 188 l3 174 70 0 70 0 27 -55 c15 -30 50 -109 79 -175 28 -66 56 -126 61
-132 13 -16 161 -18 189 -3 10 6 19 18 19 26 0 8 -41 95 -90 192 -81 157 -89
178 -74 187 55 32 102 76 124 115 33 61 41 212 15 291 -24 71 -92 139 -171
169 -54 22 -78 24 -274 28 -166 3 -218 1 -227 -9z m433 -182 c88 -46 84 -215
-6 -259 -27 -14 -60 -18 -142 -18 l-108 0 0 151 0 152 113 -5 c77 -3 122 -10
143 -21z"/>
</g>
</svg>
